<svg width="238" height="47" viewBox="0 0 238 47" fill="none" xmlns="http://www.w3.org/2000/svg">
  <path d="M99.5939 35.1508V11.7169H118.06V16.8724H105.843V21.1832H118.06V26.3387H105.843V35.1508H99.5939Z" fill="white"/>
  <path d="M138.118 24.996V35.1506H125.276C123.506 35.1506 122.147 34.7454 121.199 33.9326C120.252 33.1197 119.779 32.0579 119.779 30.7446C119.779 29.3068 120.233 28.1473 121.138 27.2612C122.044 26.3752 123.155 25.4866 124.466 24.5908L129.777 20.9341H119.903V16.4036H128.12C131.703 16.4036 134.264 17.1578 135.807 18.6688C137.347 20.1798 138.118 22.2889 138.118 24.996ZM127.058 30.6201H132.526L132.589 24.4345L126.933 28.8089C126.58 29.0798 126.328 29.2824 126.184 29.4191C126.038 29.5558 125.964 29.7267 125.964 29.9342C125.964 30.1636 126.047 30.3345 126.213 30.4492C126.379 30.564 126.66 30.6201 127.058 30.6201Z" fill="white"/>
  <path d="M140.962 35.1506V16.4036H152.586C155.315 16.4036 157.292 17.0919 158.523 18.4662C159.75 19.8405 160.366 21.7055 160.366 24.0586V35.1506H154.429V23.9024C154.429 22.9455 154.268 22.262 153.946 21.8568C153.624 21.4516 153.003 21.2466 152.086 21.2466H146.898V35.1506H140.962Z" fill="white"/>
  <path d="M162.021 20.9341V16.4036H165.053V12.5907H170.52V16.4036H180.675V20.9341H170.52V28.5257C170.52 29.3166 170.686 29.8634 171.021 30.1661C171.353 30.4688 171.895 30.6201 172.647 30.6201H175.678V35.1507H171.961C169.378 35.1507 167.528 34.6039 166.415 33.5103C165.299 32.4167 164.743 30.7568 164.743 28.5257V20.9341H162.023H162.021Z" fill="white"/>
  <path d="M196.202 24.996V35.1506H183.36C181.59 35.1506 180.231 34.7454 179.284 33.9326C178.337 33.1197 177.863 32.0579 177.863 30.7446C177.863 29.3068 178.317 28.1473 179.223 27.2612C180.128 26.3752 181.239 25.4866 182.55 24.5908L187.861 20.9341H177.988V16.4036H186.204C189.787 16.4036 192.348 17.1578 193.891 18.6688C195.431 20.1798 196.202 22.2889 196.202 24.996ZM185.142 30.6201H190.61L190.674 24.4345L185.018 28.8089C184.664 29.0798 184.412 29.2824 184.268 29.4191C184.122 29.5558 184.049 29.7267 184.049 29.9342C184.049 30.1636 184.132 30.3345 184.298 30.4492C184.464 30.564 184.744 30.6201 185.142 30.6201Z" fill="white"/>
  <path d="M209.357 28.5892L204.265 27.5883C202.391 27.2124 200.958 26.5582 199.969 25.6209C198.98 24.6835 198.485 23.4337 198.485 21.8715C198.485 21.1416 198.626 20.4459 198.907 19.7771C199.188 19.1107 199.625 18.5273 200.22 18.0268C200.814 17.5264 201.575 17.131 202.5 16.8405C203.428 16.55 204.526 16.4036 205.796 16.4036H215.106V20.9341H205.327C204.702 20.9341 204.285 21.0269 204.077 21.2148C203.87 21.4028 203.765 21.6103 203.765 21.8397C203.765 22.0887 203.858 22.3084 204.046 22.4964C204.233 22.6843 204.556 22.8186 205.015 22.9016L209.638 23.8072C211.93 24.2661 213.57 24.9472 214.559 25.8528C215.548 26.7584 216.043 27.9618 216.043 29.4606C216.043 31.1474 215.404 32.5168 214.122 33.5689C212.841 34.6209 210.897 35.1458 208.295 35.1458H199.11V30.6152H209.296C209.963 30.6152 210.395 30.5225 210.592 30.3345C210.79 30.1465 210.89 29.9073 210.89 29.6168C210.89 29.3044 210.749 29.0749 210.468 28.9285C210.187 28.782 209.816 28.6673 209.36 28.5843L209.357 28.5892Z" fill="white"/>
  <path d="M226.698 27.6201C226.781 27.8495 226.886 28.0009 227.011 28.0741C227.135 28.1473 227.25 28.184 227.355 28.184C227.479 28.184 227.589 28.1473 227.682 28.0741C227.775 28.0009 227.865 27.8495 227.948 27.6201L231.605 16.4036H237.917L231.199 34.5892C230.638 36.11 229.684 37.3647 228.341 38.3533C226.998 39.3419 225.202 39.8374 222.951 39.8374H217.827V34.8699H223.483C224.233 34.8699 224.801 34.6991 225.187 34.3549C225.573 34.0107 225.9 33.4444 226.171 32.651L226.391 32.0261H224.892C224.037 32.0261 223.334 31.8382 222.783 31.4647C222.231 31.0888 221.799 30.5176 221.487 29.7462L216.05 16.4036H222.58L226.705 27.6201H226.698Z" fill="white"/>
  <path d="M23.6511 25.0669L13.2572 35.1508H0L16.494 18.7812C22.6259 12.7129 25.5819 11.7169 36.0369 11.7169H77.3341L68.3707 20.4924H37.2183C29.407 20.4924 27.7447 21.0953 23.6487 25.0669H23.6511ZM67.033 21.8936H37.4063C29.5388 21.8936 28.3086 22.4965 24.7398 26.0628L15.6519 35.1508H27.9449L30.8692 32.2264C32.8025 30.2931 33.6642 30.11 37.5601 30.11H58.8165L67.033 21.8936ZM70.2381 35.1508L93.7329 11.7169H79.138L55.7042 35.1508H70.2381Z" fill="white"/>
  <path d="M80.1071 35.1506C79.3675 35.1506 78.7524 34.9041 78.2642 34.4086C77.7735 33.913 77.5294 33.3052 77.5294 32.5827C77.5294 31.8601 77.7735 31.2523 78.2593 30.7617C78.7451 30.271 79.3578 30.0245 80.0974 30.0245C80.837 30.0245 81.4473 30.271 81.9306 30.7665C82.4139 31.2621 82.6556 31.8699 82.6556 32.5924C82.6556 33.315 82.4164 33.9228 81.9355 34.4134C81.4546 34.9041 80.8468 35.1506 80.1071 35.1506ZM80.0925 30.4272C79.4871 30.4272 78.9794 30.6372 78.5693 31.057C78.1616 31.4769 77.9566 31.9846 77.9566 32.5827C77.9566 33.1807 78.1616 33.6885 78.5693 34.1083C78.9769 34.5282 79.4847 34.7381 80.0925 34.7381C80.7003 34.7381 81.2056 34.5306 81.6157 34.1132C82.0234 33.6958 82.2284 33.188 82.2284 32.5876C82.2284 31.9871 82.0234 31.4769 81.6157 31.057C81.208 30.6372 80.7003 30.4272 80.0925 30.4272ZM79.5921 33.0098V34.0156H79.0282V31.1718H80.0974C80.466 31.1718 80.7443 31.2401 80.9298 31.3792C81.1153 31.5159 81.208 31.7234 81.208 31.9993C81.208 32.2751 81.1714 32.4801 81.0958 32.6144C81.0201 32.7487 80.8932 32.8561 80.7125 32.9391L81.2471 34.018H80.6539L80.1682 33.0123H79.5945L79.5921 33.0098ZM79.5823 31.6111V32.568H80.156C80.3317 32.568 80.4587 32.5314 80.5343 32.4557C80.6124 32.3801 80.6515 32.258 80.6515 32.0896C80.6515 31.7698 80.4513 31.6111 80.0486 31.6111H79.5823Z" fill="white"/>
</svg>
